<?xml version="1.0" standalone="no"?>
<!DOCTYPE svg PUBLIC "-//W3C//DTD SVG 20010904//EN"
 "http://www.w3.org/TR/2001/REC-SVG-20010904/DTD/svg10.dtd">
<svg version="1.0" xmlns="http://www.w3.org/2000/svg"
 width="1024.000000pt" height="1024.000000pt" viewBox="0 0 1024.000000 1024.000000"
 preserveAspectRatio="xMidYMid meet">
<metadata>
Created by potrace 1.11, written by Peter Selinger 2001-2013
</metadata>
<g transform="translate(0.000000,1024.000000) scale(0.100000,-0.100000)"
fill="#000000" stroke="none">
<path d="M3230 8961 c0 -3 -33 -6 -73 -6 -91 1 -206 -14 -292 -36 -22 -6 -47
-13 -55 -14 -42 -9 -185 -65 -220 -86 -8 -4 -33 -17 -55 -27 -51 -24 -224
-142 -272 -185 -114 -103 -205 -199 -243 -257 -8 -12 -20 -28 -27 -35 -19 -20
-113 -188 -113 -202 0 -7 -4 -13 -9 -13 -5 0 -11 -10 -14 -22 -3 -13 -19 -61
-36 -107 -16 -46 -32 -95 -35 -110 -3 -14 -10 -46 -17 -71 -6 -25 -12 -49 -13
-55 -1 -5 -5 -16 -10 -23 -4 -7 -5 -16 -2 -19 3 -3 -1 -21 -9 -39 -8 -19 -14
-37 -15 -39 0 -3 0 -6 -1 -7 -2 -7 -10 -64 -11 -75 -1 -7 -5 -13 -10 -13 -5 0
-7 -4 -4 -8 3 -4 -9 -60 -25 -123 -17 -62 -33 -125 -35 -139 -3 -14 -8 -34
-11 -45 -4 -11 -8 -24 -9 -30 -1 -5 -10 -39 -19 -75 -9 -36 -18 -74 -20 -85
-10 -44 -15 -63 -35 -135 -11 -41 -22 -86 -25 -100 -2 -14 -9 -43 -15 -65 -6
-22 -12 -47 -14 -55 -2 -8 -11 -42 -20 -76 -8 -33 -18 -71 -20 -85 -2 -13 -5
-24 -6 -24 -2 0 -11 -36 -15 -68 -3 -15 -9 -37 -15 -47 -6 -11 -8 -20 -6 -20
3 0 -1 -18 -9 -40 -8 -22 -12 -40 -10 -40 3 0 0 -12 -6 -27 -6 -16 -12 -37
-14 -48 -4 -25 -7 -38 -35 -145 -12 -47 -24 -92 -25 -100 -2 -8 -4 -15 -5 -15
-1 0 -3 -11 -6 -25 -2 -14 -10 -50 -17 -80 l-14 -55 -44 -2 c-159 -7 -257 -12
-274 -16 -11 -3 -40 -8 -64 -12 -119 -20 -345 -120 -409 -182 -7 -7 -17 -13
-21 -13 -16 0 -182 -169 -236 -240 -56 -73 -131 -217 -155 -295 -7 -22 -15
-47 -18 -55 -9 -26 -13 -44 -17 -70 -1 -14 -4 -25 -5 -25 -10 0 -13 -187 -16
-1110 -5 -1169 -9 -1106 62 -1154 23 -16 52 -25 80 -26 24 -1 47 -5 50 -8 4
-3 15 -2 25 3 12 7 20 7 24 0 4 -7 13 -7 24 0 12 6 22 5 28 -1 8 -8 13 -7 17
0 5 8 13 8 26 1 13 -7 21 -7 25 0 4 6 11 8 17 4 13 -8 202 -9 216 0 6 3 13 2
17 -4 4 -6 11 -7 17 -4 6 4 9 -7 7 -29 -2 -20 -1 -39 2 -42 4 -3 3 -23 -1 -45
-4 -22 -4 -40 0 -40 4 0 4 -18 0 -40 -4 -22 -4 -40 0 -40 4 0 4 -18 0 -40 -4
-22 -4 -40 0 -40 4 0 4 -18 0 -40 -4 -22 -4 -40 0 -40 4 0 4 -18 0 -40 -4 -22
-4 -40 0 -40 4 0 4 -18 0 -40 -4 -23 -3 -40 2 -40 5 0 7 -4 4 -8 -8 -13 -8
-70 -1 -157 4 -44 8 -90 9 -102 0 -13 3 -23 6 -23 3 0 6 -9 7 -20 3 -36 44
-143 84 -218 38 -72 100 -158 156 -217 75 -80 231 -192 293 -210 3 -1 21 -8
41 -17 83 -36 167 -55 289 -64 79 -6 144 -4 240 9 76 11 236 68 290 104 19 13
38 23 43 23 4 0 13 4 20 10 7 5 41 33 77 62 79 64 73 58 143 143 59 71 62 76
84 111 33 50 109 234 98 234 -3 0 -1 8 4 18 12 22 22 90 26 163 1 31 5 62 9
68 4 6 2 11 -4 11 -8 0 -8 6 0 20 8 14 8 20 0 20 -8 0 -8 6 0 20 8 14 8 20 0
20 -8 0 -8 6 0 20 8 14 8 20 0 20 -8 0 -8 6 0 20 8 14 8 20 0 20 -8 0 -8 6 0
20 8 14 8 20 0 20 -8 0 -8 6 0 20 8 14 8 20 0 20 -8 0 -8 6 0 20 8 14 8 20 0
20 -8 0 -8 6 0 20 8 14 8 20 0 20 -8 0 -8 6 0 20 8 14 8 20 0 20 -8 0 -8 6 0
20 8 14 8 20 0 20 -8 0 -8 6 0 20 8 14 8 20 0 20 -7 0 -8 6 -1 18 7 13 7 22 0
29 -8 8 -7 13 0 17 8 5 8 13 1 27 -7 12 -7 19 -1 19 7 0 7 8 2 23 -11 29 2 63
28 70 12 3 21 1 21 -4 0 -6 8 -5 19 1 13 7 22 7 26 0 4 -7 12 -7 25 0 13 7 21
7 25 0 4 -7 12 -7 25 0 13 7 21 7 25 0 4 -6 13 -7 23 -1 11 6 24 6 34 0 11 -6
19 -6 23 1 4 7 13 7 26 0 12 -7 19 -7 19 -1 0 7 9 7 25 1 17 -6 25 -6 25 1 0
6 5 7 11 3 14 -9 163 -9 178 0 6 4 11 3 11 -3 0 -7 8 -7 25 -1 16 6 25 6 25 0
0 -6 9 -6 25 0 16 6 25 6 25 0 0 -6 9 -6 23 -1 13 5 30 5 39 0 11 -6 19 -5 23
1 4 7 13 7 26 0 12 -7 19 -7 19 -1 0 7 9 7 25 1 16 -6 25 -6 25 0 0 6 9 6 25
0 16 -6 25 -6 25 0 0 6 9 6 25 0 15 -6 25 -6 25 0 0 5 12 5 28 1 15 -5 37 -4
50 0 13 5 22 4 22 -1 0 -6 9 -6 25 0 16 6 25 6 25 0 0 -6 9 -6 25 0 16 6 25 6
25 0 0 -6 9 -6 23 -1 13 5 30 5 39 0 11 -6 19 -5 23 1 4 7 13 7 26 0 12 -7 19
-7 19 -1 0 7 9 7 25 1 16 -6 25 -6 25 0 0 6 9 6 25 0 16 -6 25 -6 25 0 0 6 9
6 25 0 15 -6 25 -6 25 0 0 5 12 5 28 1 15 -5 37 -4 50 0 13 5 22 4 22 -1 0 -6
9 -6 25 0 16 6 25 6 25 0 0 -6 9 -6 25 0 16 6 25 6 25 0 0 -6 9 -6 23 -1 13 5
30 5 39 0 11 -6 19 -5 23 1 4 7 13 7 26 0 12 -7 19 -7 19 -1 0 7 9 7 25 1 16
-6 25 -6 25 0 0 6 9 6 25 0 16 -6 25 -6 25 0 0 6 9 6 25 0 15 -6 25 -6 25 0 0
5 12 5 28 1 15 -5 37 -4 50 0 13 5 22 4 22 -1 0 -6 9 -6 25 0 16 6 25 6 25 0
0 -6 9 -6 25 0 16 6 25 6 25 0 0 -6 9 -6 23 -1 13 5 30 5 39 0 11 -6 19 -5 23
1 4 7 13 7 26 0 12 -7 19 -7 19 -1 0 7 9 7 25 1 16 -6 25 -6 25 0 0 6 9 6 25
0 16 -6 25 -6 25 0 0 6 9 6 25 0 16 -6 25 -6 25 0 0 5 6 7 13 4 24 -9 98 -10
103 -2 3 5 10 6 15 2 17 -10 59 -12 65 -3 3 5 14 4 25 -1 12 -7 19 -7 19 -1 0
7 8 7 23 2 12 -5 31 -5 42 -1 11 4 25 3 32 -2 7 -5 14 -5 18 2 4 7 12 7 26 0
12 -7 19 -7 19 -1 0 7 8 7 23 2 12 -5 31 -5 42 -1 11 4 25 3 32 -2 7 -5 14 -5
18 2 4 7 12 7 26 0 12 -7 19 -7 19 -1 0 7 8 7 23 2 12 -5 31 -5 42 -1 11 4 25
3 32 -2 7 -5 14 -5 18 2 4 7 12 7 26 0 12 -7 19 -7 19 -1 0 7 8 7 23 2 12 -5
31 -5 42 -1 11 4 25 3 32 -2 7 -5 14 -5 18 2 4 7 12 7 26 0 12 -7 19 -7 19 -1
0 7 8 7 23 2 12 -5 31 -5 42 -1 11 4 25 3 32 -2 7 -5 14 -5 18 2 4 7 12 7 26
0 12 -7 19 -7 19 -1 0 7 8 7 23 2 12 -5 31 -5 42 -1 11 4 25 3 32 -2 7 -5 14
-5 18 2 4 7 12 7 26 0 12 -7 19 -7 19 -1 0 7 8 7 23 2 12 -5 31 -5 42 -1 11 4
25 3 32 -2 7 -5 14 -5 18 2 4 7 12 7 26 0 12 -7 19 -7 19 -1 0 7 8 7 23 2 12
-5 31 -5 42 -1 11 4 25 3 32 -2 7 -5 14 -5 18 2 4 7 12 7 26 0 12 -7 19 -7 19
-1 0 7 8 7 23 2 12 -5 31 -5 42 -1 11 4 25 3 32 -2 7 -5 14 -5 18 2 4 7 12 7
26 0 12 -7 19 -7 19 -1 0 7 8 7 23 2 12 -5 31 -5 42 -1 11 4 25 3 32 -2 7 -5
14 -5 18 2 4 7 12 7 26 0 12 -7 19 -7 19 -1 0 7 8 7 23 2 12 -5 31 -5 42 -1
11 4 25 3 32 -2 7 -5 14 -5 18 2 4 7 12 7 26 0 12 -7 19 -7 19 -1 0 7 8 7 23
2 12 -5 31 -5 42 -1 11 4 25 3 32 -2 7 -5 14 -5 18 2 4 7 12 7 26 0 12 -7 19
-7 19 -1 0 7 8 7 23 2 12 -5 31 -5 42 -1 11 4 25 3 32 -2 7 -5 14 -5 18 2 4 7
12 7 26 0 12 -7 19 -7 19 -1 0 7 8 7 23 2 12 -5 31 -5 42 -1 11 4 25 3 32 -2
7 -5 14 -5 18 2 4 7 12 7 26 0 12 -7 19 -7 19 -1 0 7 8 7 23 2 12 -5 32 -5 45
0 13 5 22 5 22 -2 0 -6 6 -6 18 0 13 7 22 7 29 0 8 -8 13 -8 17 0 5 7 15 7 32
1 16 -7 23 -7 19 0 -4 6 2 7 16 2 21 -8 47 -52 31 -52 -4 0 -7 -13 -7 -30 0
-16 3 -30 7 -30 4 0 3 -11 -2 -25 -6 -16 -6 -25 0 -25 6 0 6 -9 0 -25 -6 -16
-6 -25 1 -25 6 0 6 -7 -1 -19 -7 -13 -7 -22 0 -26 7 -4 7 -12 0 -25 -7 -13 -7
-21 0 -25 7 -4 7 -13 0 -26 -7 -12 -7 -19 -1 -19 7 0 7 -9 1 -25 -6 -15 -6
-26 0 -30 7 -4 7 -13 0 -24 -6 -12 -5 -22 1 -28 8 -8 7 -13 0 -17 -8 -5 -8
-13 -1 -26 6 -10 7 -21 2 -24 -8 -5 -7 -80 2 -103 3 -7 1 -13 -5 -13 -6 0 -7
-5 -3 -11 3 -6 8 -39 10 -73 5 -93 17 -152 48 -236 9 -25 18 -49 20 -55 1 -5
15 -35 32 -65 16 -30 31 -59 33 -65 5 -13 101 -132 132 -165 73 -76 229 -187
289 -205 3 -1 23 -9 45 -19 101 -44 190 -59 350 -60 134 0 214 9 277 33 13 5
26 9 30 10 122 24 341 176 443 305 17 22 35 44 40 50 22 26 73 115 73 130 0 5
5 12 10 15 5 3 19 35 31 71 12 36 25 72 28 80 3 8 7 22 8 30 10 52 17 100 19
126 1 16 5 35 9 42 5 6 4 12 -1 12 -4 0 -6 22 -2 50 3 27 3 54 0 60 -4 6 -4
31 0 56 4 24 4 47 0 49 -4 3 -4 22 -1 42 4 21 4 49 1 63 -3 14 -3 42 1 63 3
20 3 40 -1 42 -4 3 -4 21 0 40 4 19 4 37 0 40 -4 3 -4 20 0 39 4 19 4 40 -1
47 -4 7 -5 17 -2 22 3 6 6 24 5 41 -1 36 13 47 45 35 14 -5 23 -5 23 1 0 6 9
6 25 0 14 -5 25 -6 25 -2 0 9 65 6 80 -3 6 -3 10 -2 10 4 0 7 8 7 25 1 16 -6
25 -6 25 0 0 6 9 6 25 0 16 -6 25 -6 25 0 0 6 9 6 25 0 14 -5 25 -6 25 -2 0 9
47 8 56 -1 4 -3 15 -2 25 3 12 7 20 7 24 0 4 -7 12 -7 24 0 10 5 21 7 23 4 12
-11 75 30 98 64 l25 36 0 1045 c0 1000 -2 1098 -23 1184 -6 20 -8 37 -5 37 3
0 0 7 -7 15 -7 8 -10 15 -6 15 4 0 0 13 -9 30 -8 16 -15 33 -15 37 1 10 -52
136 -59 143 -8 7 -27 39 -47 78 -9 17 -20 32 -25 32 -5 0 -9 5 -9 10 0 23
-232 260 -255 260 -3 0 -28 17 -57 37 -28 21 -58 38 -65 39 -8 1 -21 8 -29 15
-27 23 -128 60 -229 86 -60 16 -184 30 -250 29 -41 -1 -75 2 -75 5 0 3 -20 3
-45 -1 l-44 -7 -11 46 c-20 85 -28 115 -55 221 -15 58 -29 114 -32 125 -2 11
-6 27 -8 35 -1 8 -5 22 -8 30 -2 8 -17 65 -31 125 -15 61 -31 125 -37 143 -6
19 -12 44 -14 55 -1 12 -8 42 -15 67 -15 55 -21 79 -25 105 -2 11 -8 32 -14
48 -6 15 -8 27 -5 27 2 0 0 9 -6 19 -5 11 -12 37 -15 58 -4 21 -10 52 -15 68
-19 59 -100 390 -100 408 0 9 -4 17 -8 17 -4 0 -8 10 -9 23 -1 12 -3 31 -6 42
-36 132 -105 409 -113 450 -3 16 -9 34 -13 40 -5 5 -11 25 -14 42 -4 18 -15
52 -26 75 -10 24 -22 54 -26 68 -4 14 -10 27 -14 30 -3 3 -19 32 -36 64 -47
95 -143 222 -247 328 -53 54 -101 98 -106 98 -5 0 -17 10 -28 21 -51 57 -368
239 -416 239 -8 0 -18 4 -23 9 -6 4 -46 18 -90 29 -134 35 -191 44 -307 46
-49 0 -88 4 -88 8 0 4 -12 3 -27 -1 -16 -5 -37 -5 -48 -1 -11 4 -24 5 -30 2
-8 -5 -77 -6 -100 -2 -5 1 -12 2 -15 0 -15 -5 -80 -4 -80 2 0 4 -6 5 -14 2
-19 -7 -106 -10 -106 -3 0 3 -20 3 -45 -1 -25 -4 -45 -3 -45 1 0 5 -10 5 -22
0 -13 -4 -35 -5 -50 0 -16 4 -28 5 -28 1 0 -8 -62 -8 -76 0 -5 3 -18 2 -29 -2
-11 -4 -32 -4 -47 1 -16 4 -28 5 -28 1 0 -8 -85 -6 -106 2 -8 3 -14 2 -14 -2
0 -8 -62 -8 -76 0 -5 3 -18 2 -29 -2 -11 -4 -32 -4 -47 1 -16 4 -28 5 -28 1 0
-8 -62 -8 -76 0 -5 3 -18 2 -29 -2 -11 -4 -32 -4 -47 1 -16 4 -28 5 -28 1 0
-8 -85 -6 -106 2 -8 3 -14 2 -14 -2 0 -8 -62 -8 -76 0 -5 3 -18 2 -29 -2 -11
-4 -32 -4 -47 1 -16 4 -28 5 -28 1 0 -8 -62 -8 -76 0 -5 3 -18 2 -29 -2 -11
-4 -32 -4 -47 1 -14 4 -29 5 -32 2 -5 -6 -72 -6 -122 0 -18 1 -40 0 -50 -4
-11 -3 -29 -3 -41 2 -12 5 -25 4 -28 0 -3 -5 -21 -5 -40 -1 -19 4 -37 4 -40 0
-3 -4 -20 -5 -37 -1 -18 4 -48 4 -66 0 -18 -3 -35 -3 -38 2 -2 4 -15 4 -27 0
-12 -5 -32 -5 -44 0 -12 4 -25 4 -28 0 -3 -5 -21 -5 -40 -1 -19 4 -37 4 -40 0
-3 -4 -20 -5 -37 -1 -18 4 -48 4 -66 0 -18 -3 -35 -3 -38 2 -2 4 -15 4 -27 0
-12 -5 -32 -5 -44 0 -12 4 -25 4 -28 0 -3 -5 -21 -5 -40 -1 -19 4 -37 4 -40 0
-3 -4 -20 -5 -37 -1 -18 4 -48 4 -66 0 -18 -3 -35 -3 -38 2 -2 4 -15 4 -27 0
-12 -5 -32 -5 -44 0 -12 4 -25 4 -28 0 -3 -5 -21 -5 -40 -1 -20 4 -38 4 -41
-1 -3 -5 -10 -7 -15 -3 -5 3 -31 5 -57 5 -134 -4 -180 -3 -189 2 -5 3 -15 2
-22 -2 -7 -5 -27 -5 -45 -2 -17 4 -45 4 -63 1 -17 -4 -37 -4 -43 0 -7 4 -27 4
-45 0 -18 -4 -39 -3 -48 1 -9 6 -18 5 -21 0 -3 -4 -23 -5 -43 -2 -21 4 -49 4
-63 1 -14 -3 -42 -3 -62 1 -21 3 -38 4 -38 0z m2 -1280 c10 5 19 5 23 0 3 -5
17 -6 33 -2 15 5 37 4 50 0 14 -5 22 -5 22 2 0 7 6 7 17 0 11 -6 24 -6 35 0
10 6 19 5 23 -1 4 -7 12 -7 25 0 10 6 21 7 23 3 6 -9 59 -9 73 0 6 3 16 2 24
-3 8 -5 22 -5 32 1 12 6 18 6 18 0 0 -7 9 -7 25 -1 16 6 25 6 25 0 0 -6 9 -6
25 0 14 5 25 6 25 2 0 -4 14 -7 30 -7 17 0 30 3 30 7 0 4 11 3 25 -2 17 -6 25
-6 25 1 0 7 6 7 17 0 11 -6 24 -6 35 0 10 6 19 5 23 -1 4 -7 12 -7 25 0 10 6
21 7 23 3 6 -9 59 -9 73 0 6 3 16 2 24 -3 8 -5 22 -5 32 1 12 6 18 6 18 0 0
-7 9 -7 25 -1 16 6 25 6 25 0 0 -6 9 -6 25 0 14 5 25 6 25 2 0 -4 14 -7 30 -7
17 0 30 3 30 7 0 4 11 3 25 -2 17 -6 25 -6 25 1 0 7 6 7 17 0 11 -6 24 -6 35
0 10 6 19 5 23 -1 4 -7 12 -7 25 0 10 6 21 7 23 3 6 -9 59 -9 73 0 6 3 16 2
24 -3 8 -5 22 -5 32 1 12 6 18 6 18 0 0 -7 9 -7 25 -1 16 6 25 6 25 0 0 -6 9
-6 25 0 14 5 25 6 25 2 0 -4 14 -7 30 -7 17 0 30 3 30 7 0 4 11 3 25 -2 17 -6
25 -6 25 1 0 7 6 7 17 0 11 -6 24 -6 35 0 10 6 19 5 23 -1 4 -7 12 -7 25 0 10
6 21 7 23 3 6 -9 59 -9 73 0 6 3 16 2 24 -3 8 -5 22 -5 32 1 10 5 18 6 18 2 0
-9 79 -8 87 1 3 3 16 1 29 -4 16 -6 24 -6 24 1 0 6 7 6 19 -1 14 -7 22 -7 26
0 4 7 11 7 18 2 7 -5 21 -6 32 -2 11 4 30 4 43 -1 14 -5 22 -5 22 2 0 6 7 6
19 -1 14 -7 22 -7 26 0 4 7 11 7 18 2 7 -5 21 -6 32 -2 11 4 30 4 43 -1 14 -5
22 -5 22 2 0 6 7 6 19 -1 14 -7 22 -7 26 0 4 7 11 7 18 2 7 -5 21 -6 32 -2 11
4 30 4 43 -1 14 -5 22 -5 22 2 0 6 7 6 19 -1 14 -7 22 -7 26 0 4 7 11 7 18 2
7 -5 21 -6 32 -2 11 4 30 4 43 -1 14 -5 22 -5 22 2 0 6 7 6 19 -1 14 -7 22 -7
26 0 4 7 11 7 18 2 7 -5 21 -6 32 -2 11 4 30 4 43 -1 14 -5 22 -5 22 2 0 6 7
6 19 -1 14 -7 22 -7 26 0 4 7 11 7 18 2 7 -5 21 -6 32 -2 11 4 30 4 43 -1 14
-5 22 -5 22 2 0 6 7 6 19 -1 14 -7 22 -7 26 0 4 7 11 7 18 2 7 -5 21 -6 32 -2
11 4 30 4 43 -1 14 -5 22 -5 22 2 0 6 7 6 19 -1 14 -7 22 -7 26 0 4 7 11 7 18
2 7 -5 21 -6 32 -2 11 4 30 4 43 -1 14 -5 22 -5 22 2 0 6 7 6 19 -1 14 -7 22
-7 26 0 4 7 11 7 18 2 7 -5 21 -6 32 -2 11 4 30 4 43 -1 14 -5 22 -5 22 2 0 6
7 6 19 -1 14 -7 22 -7 26 0 4 7 11 7 18 2 7 -5 21 -6 32 -2 11 4 30 4 43 -1
14 -5 22 -5 22 2 0 6 7 6 19 -1 14 -7 22 -7 26 0 4 7 11 7 18 2 7 -5 21 -6 32
-2 11 4 30 4 43 -1 14 -5 22 -5 22 2 0 6 7 6 19 -1 14 -7 22 -7 26 0 4 6 12 7
18 3 6 -4 22 -8 35 -9 43 -5 138 -89 147 -132 2 -9 22 -89 45 -177 23 -88 43
-169 45 -180 2 -11 20 -85 40 -165 21 -80 39 -155 40 -167 2 -12 6 -27 10 -33
3 -5 8 -23 11 -38 2 -15 16 -72 31 -127 14 -55 27 -109 29 -120 2 -11 16 -69
32 -130 16 -60 32 -121 35 -135 15 -67 49 -207 54 -220 3 -8 7 -22 8 -30 2 -8
6 -24 8 -35 3 -11 17 -65 30 -120 l24 -100 -36 -5 c-20 -3 -55 -3 -78 1 -23 3
-47 2 -54 -2 -6 -4 -23 -3 -38 1 -14 4 -35 4 -46 0 -11 -4 -29 -4 -40 0 -10 4
-34 4 -52 0 -18 -5 -35 -4 -38 0 -3 4 -21 4 -40 0 -19 -4 -37 -4 -40 0 -3 4
-21 4 -40 0 -20 -4 -38 -4 -41 1 -3 5 -10 7 -15 3 -12 -7 -199 -8 -206 0 -3 3
-13 2 -22 -3 -9 -5 -25 -5 -36 -1 -11 4 -29 4 -40 0 -11 -4 -29 -4 -40 0 -11
4 -32 4 -47 -1 -14 -4 -29 -5 -32 -2 -7 8 -106 9 -106 2 0 -4 -18 -3 -40 1
-22 4 -43 4 -45 0 -3 -5 -17 -5 -33 -1 -15 4 -38 5 -52 1 -14 -4 -34 -4 -45 0
-11 4 -29 4 -40 0 -11 -4 -29 -4 -40 0 -11 4 -32 4 -47 -1 -14 -4 -29 -5 -32
-2 -7 8 -106 9 -106 2 0 -4 -18 -3 -40 1 -22 4 -43 4 -46 -1 -2 -4 -11 -6 -18
-3 -23 9 -136 10 -136 1 0 -5 -5 -5 -10 -2 -14 9 -135 10 -148 1 -6 -3 -13 -2
-16 3 -3 5 -21 5 -41 1 -19 -4 -37 -4 -40 0 -3 4 -21 4 -40 0 -19 -4 -37 -4
-40 0 -3 4 -21 4 -40 0 -19 -4 -37 -4 -40 0 -3 4 -21 4 -40 0 -19 -4 -37 -4
-40 0 -3 4 -21 4 -40 0 -19 -4 -37 -4 -40 0 -3 4 -21 4 -40 0 -20 -4 -38 -4
-41 1 -3 5 -10 7 -15 3 -6 -3 -36 -5 -67 -5 -31 1 -65 1 -74 2 -10 0 -43 -1
-73 -1 -30 -1 -59 1 -64 4 -5 4 -12 2 -16 -4 -4 -6 -10 -8 -15 -5 -12 8 -128
10 -135 3 -3 -3 -24 -2 -45 2 -22 4 -43 4 -45 0 -3 -4 -20 -5 -37 -1 -18 4
-45 4 -60 0 -16 -4 -30 -4 -33 1 -3 4 -20 4 -39 0 -19 -4 -37 -6 -40 -3 -7 8
-106 9 -106 2 0 -4 -15 -3 -34 1 -19 4 -40 4 -47 0 -7 -5 -17 -6 -24 -4 -19 8
-135 10 -135 3 0 -4 -15 -3 -34 1 -19 4 -39 4 -46 0 -7 -4 -27 -4 -46 0 -19 4
-36 4 -39 0 -3 -4 -20 -5 -37 -1 -18 4 -44 4 -58 1 -14 -4 -36 -4 -50 0 -14 3
-41 3 -60 0 -19 -3 -52 -3 -73 1 -20 3 -40 2 -43 -2 -3 -5 -9 -7 -14 -4 -12 8
-128 10 -135 3 -3 -3 -24 -2 -45 2 -22 4 -43 4 -45 0 -3 -4 -20 -5 -37 -1 -18
4 -45 4 -60 0 -16 -4 -30 -4 -33 1 -3 4 -20 4 -39 0 -19 -4 -37 -6 -40 -3 -7
8 -106 9 -106 2 0 -4 -15 -3 -34 1 -19 4 -39 4 -46 0 -7 -4 -27 -4 -45 0 -18
4 -39 4 -45 0 -7 -4 -24 -4 -39 0 -14 4 -36 4 -47 0 -11 -5 -26 -5 -33 0 -7 4
-28 4 -47 0 -18 -4 -36 -5 -39 -2 -3 3 -25 5 -49 3 -38 -2 -44 1 -41 16 2 10
4 18 5 18 1 0 3 9 5 20 2 11 14 58 25 105 12 47 23 92 25 100 1 8 13 53 25
100 12 47 24 93 25 103 2 10 18 73 35 140 18 67 34 130 36 140 2 10 6 27 9 37
3 10 7 27 9 37 2 10 16 65 31 123 15 58 28 112 30 120 2 8 20 83 40 165 21 83
39 157 40 165 2 8 4 15 5 15 1 0 3 7 5 15 1 9 12 54 24 101 12 48 24 96 26
108 2 11 7 26 11 32 4 7 8 19 9 28 8 78 30 128 75 169 29 26 81 57 93 54 4 -1
7 3 7 8 0 7 6 8 17 1 11 -6 24 -6 35 0z m-1563 -2727 c25 -1 66 -6 91 -9 50
-8 196 -61 220 -80 8 -6 22 -14 30 -17 39 -14 180 -142 222 -201 12 -18 29
-39 37 -47 8 -8 23 -34 33 -57 10 -23 23 -45 28 -48 6 -3 10 -14 10 -23 0 -9
6 -29 14 -43 7 -14 17 -43 21 -65 5 -21 10 -48 13 -59 3 -11 5 -78 6 -150 0
-139 -21 -243 -64 -320 -11 -19 -20 -40 -20 -46 0 -33 -142 -199 -220 -258
-19 -14 -41 -32 -49 -39 -15 -14 -145 -81 -170 -88 -134 -34 -191 -42 -294
-39 -108 3 -211 20 -254 43 -11 6 -23 8 -27 5 -3 -3 -6 -1 -6 5 0 7 -8 12 -17
12 -10 0 -29 9 -43 20 -14 11 -29 20 -34 20 -10 0 -131 94 -161 125 -140 143
-222 322 -230 502 -1 24 -4 46 -8 49 -4 4 -4 11 0 17 3 6 7 35 9 66 3 91 36
216 70 268 8 12 14 27 14 32 0 34 139 199 216 257 21 16 45 35 53 42 21 20
121 69 188 91 75 25 113 33 186 36 31 1 60 5 64 8 3 4 10 4 16 0 6 -3 31 -7
56 -9z m7038 1 c88 -8 155 -20 188 -34 130 -55 234 -120 310 -196 35 -34 125
-152 125 -163 0 -6 4 -12 8 -14 10 -4 62 -125 68 -157 3 -13 8 -31 13 -40 4
-9 9 -34 10 -56 2 -22 7 -46 13 -52 6 -7 7 -13 2 -13 -5 0 -9 -37 -8 -83 0
-46 -7 -117 -18 -162 -24 -103 -20 -93 -45 -145 -11 -25 -23 -52 -27 -60 -6
-16 -28 -52 -36 -60 -3 -3 -23 -27 -45 -55 -45 -57 -85 -96 -135 -134 -19 -14
-41 -32 -49 -39 -27 -25 -151 -82 -228 -104 -62 -17 -104 -22 -208 -22 -71 0
-141 3 -155 6 -14 3 -38 9 -55 13 -104 23 -268 119 -360 210 -29 28 -125 151
-125 160 0 4 -9 19 -19 34 -11 15 -23 39 -26 54 -4 15 -11 27 -16 27 -5 0 -8
3 -7 8 1 4 -6 41 -16 82 -27 111 -29 266 -5 370 21 91 26 114 29 118 2 1 3 5
4 10 1 4 15 32 31 62 17 30 33 63 37 73 4 9 12 17 17 17 5 0 12 8 15 18 8 22
97 116 156 163 76 61 215 131 285 144 11 2 32 6 47 9 15 4 52 8 83 10 31 2 59
6 62 9 3 4 9 4 14 2 4 -3 34 -7 66 -10z"/>
</g>
</svg>
